    <svg
      width="200"
      height="48"
      viewBox="0 0 200 48"
      fill="none"
      xmlns="http://www.w3.org/2000/svg"
    >
      <path
        fill-rule="evenodd"
        clip-rule="evenodd"
        d="M16.8853 47.2172H16.8851L16.8838 47.2168L16.8802 47.2158L16.8745 47.214L16.873 47.2135L16.8664 47.2115L16.856 47.2082L16.8433 47.2042L16.8369 47.2021L16.8284 47.1994L16.8114 47.1938L16.7921 47.1876L16.7774 47.1828L16.7704 47.1804L16.7469 47.1726L16.7211 47.1639L16.6958 47.1551L16.6933 47.1544L16.6634 47.144L16.6314 47.1327L16.5974 47.1206L16.5923 47.1187L16.5615 47.1077L16.49 47.0818L16.4836 47.0793L16.468 47.0737L16.4419 47.0637L16.398 47.0473L16.3523 47.0301L16.3236 47.019L16.3049 47.0118L16.1757 46.961L16.1599 46.9549L16.1514 46.9513L16.0968 46.9293L16.0403 46.9062L15.9821 46.8822L15.9777 46.8806L15.9556 46.8711L15.8605 46.8313L15.797 46.8042L15.7314 46.7758L15.5983 46.7176L15.5279 46.686L15.4568 46.6539L15.384 46.6207L15.3095 46.5864L15.234 46.5508L15.1568 46.5146L15.1554 46.5137L15.0115 46.4447L14.9982 46.4383L14.9167 46.3984L14.8339 46.3574L14.7499 46.3152L14.6645 46.272L14.6375 46.258L14.49 46.1819L14.4006 46.135C14.3107 46.0876 14.2191 46.0386 14.1258 45.9874L14.0318 45.9359L13.8406 45.8288L13.7433 45.7734L13.5457 45.6589L13.4453 45.5996L13.2415 45.4774L13.1381 45.4142L13.1139 45.3993C8.13731 42.3336 0 34.7113 0 17.633V8.21893H33.7708V17.633C33.7708 22.8217 32.9626 27.1561 31.7001 30.7614L31.7 30.7616C31.1589 32.3067 30.5347 33.7177 29.8545 35.005L29.8541 35.0054C29.7408 35.2197 29.6261 35.4308 29.5099 35.6383L29.5096 35.6387C28.9563 36.6256 28.3714 37.5349 27.768 38.3736L27.6746 38.5048L27.6744 38.5052C27.6387 38.5543 27.6025 38.6012 27.5665 38.6498C27.4746 38.7743 27.3827 38.899 27.2903 39.0202C27.1617 39.1886 27.0328 39.3542 26.9029 39.5164L26.9024 39.5166C26.7725 39.6787 26.6424 39.8381 26.5116 39.9942L26.5115 39.9947C26.3807 40.1507 26.2497 40.3037 26.1185 40.454L26.1182 40.4542C25.9869 40.6045 25.8553 40.7516 25.7236 40.8959L25.7234 40.8961C25.5913 41.0405 25.4601 41.1815 25.328 41.3199L25.3278 41.3201C25.196 41.4583 25.0641 41.594 24.9326 41.7266L24.9321 41.7271C24.8006 41.8595 24.6688 41.9896 24.5377 42.1164L24.5373 42.1166C24.4061 42.2434 24.2748 42.3677 24.1444 42.4892L24.144 42.4895C24.0133 42.611 23.8831 42.7295 23.7533 42.8455L23.7531 42.8457C23.6231 42.9617 23.494 43.075 23.3654 43.1855L23.3652 43.1857C23.2368 43.2963 23.1087 43.4042 22.9816 43.5095L22.9811 43.5097C22.8539 43.6148 22.7274 43.7178 22.602 43.818H22.6018C22.4761 43.9182 22.3517 44.0154 22.2281 44.1106L22.2279 44.1108C22.1042 44.206 21.9816 44.2984 21.8602 44.3884L21.86 44.3886C21.7384 44.4786 21.6182 44.5663 21.4993 44.6513H21.4991C21.38 44.7365 21.2624 44.8193 21.1463 44.8995H21.146C21.0299 44.9797 20.9152 45.0574 20.8017 45.133L20.8015 45.1333C20.6882 45.2089 20.5766 45.2818 20.4664 45.3528L20.4663 45.353C20.356 45.4238 20.2478 45.4925 20.1412 45.5587H20.141C20.0344 45.6249 19.9296 45.6892 19.8267 45.7512H19.8266C19.7234 45.8131 19.6229 45.8728 19.5239 45.9302L19.5237 45.9304C19.4247 45.988 19.3279 46.0432 19.2332 46.0965H19.2331C19.1385 46.1499 19.046 46.2007 18.956 46.2498H18.9556C18.8654 46.2989 18.7779 46.3459 18.6924 46.3908H18.6922C18.6068 46.4356 18.524 46.4786 18.4437 46.5197H18.4435L18.2104 46.6366H18.2102L17.9932 46.7417L17.993 46.7419L17.7933 46.836H17.793L17.6109 46.919H17.6107L17.4471 46.9911H17.4469L17.3027 47.0529H17.3025L17.1783 47.1042H17.1781L17.0748 47.1456H17.0746L16.9931 47.1774H16.9929L16.9336 47.1999H16.9334L16.8975 47.213H16.8973L16.8853 47.2174L16.8853 47.2172Z"
        fill="#072259"
      />
      <path
        fill-rule="evenodd"
        clip-rule="evenodd"
        d="M0 6.06191V0.870331H3.18043V1.2529C3.18043 1.64327 2.8639 1.95971 2.47363 1.95971H1.27075V3.0487H2.8536V3.4177C2.8536 3.81539 2.53129 4.13789 2.13351 4.13789H1.27075V6.06182H0L0 6.06191Z"
        fill="#072259"
      />
      <path
        fill-rule="evenodd"
        clip-rule="evenodd"
        d="M3.89853 6.06191V0.870331H5.70656C6.16643 0.870331 6.50289 0.91163 6.71584 0.99394C7.0161 1.10956 7.25071 1.29738 7.42033 1.55644C7.58957 1.81569 7.67419 2.13126 7.67419 2.5043C7.67419 2.79455 7.60633 3.07171 7.47097 3.33539C7.33542 3.59936 7.14423 3.79421 6.89711 3.92003V3.93466C6.94563 3.99753 7.0109 4.10169 7.09341 4.24696L8.10249 6.06201H6.68657L5.76451 4.31175H5.16928V6.06201H3.89844L3.89853 6.06191ZM5.16938 3.22266H5.72129C5.92913 3.22266 6.09115 3.1673 6.20764 3.05573C6.32364 2.94483 6.3815 2.78752 6.3815 2.58411C6.3815 2.29819 6.28013 2.11403 6.077 2.03201C5.96542 1.98378 5.80562 1.95971 5.59758 1.95971H5.16928V3.22266H5.16938Z"
        fill="#072259"
      />
      <path
        fill-rule="evenodd"
        clip-rule="evenodd"
        d="M8.67578 6.06189V0.870209H11.929V1.95968H9.94662V2.90321H11.5294V3.9922H9.94662V4.9728H12.0307V6.06189H8.67578Z"
        fill="#072259"
      />
      <path
        fill-rule="evenodd"
        clip-rule="evenodd"
        d="M12.8438 6.06189V0.870209H16.0969V1.95968H14.1146V2.90321H15.6973V3.9922H14.1146V4.9728H16.1985V6.06189H12.8438Z"
        fill="#072259"
      />
      <path
        fill-rule="evenodd"
        clip-rule="evenodd"
        d="M17.0117 6.06191V0.870331H18.8559C19.6786 0.870331 20.3309 1.09878 20.8127 1.55644C21.2945 2.0141 21.5356 2.64697 21.5356 3.45544C21.5356 4.26843 21.2945 4.9063 20.8127 5.36859C20.3309 5.83077 19.6786 6.06191 18.8559 6.06191H17.0117ZM18.2826 4.97292H18.8052C19.2503 4.97292 19.5977 4.84228 19.8468 4.58082C20.0965 4.31945 20.2208 3.94429 20.2208 3.45534C20.2208 2.9713 20.0951 2.60086 19.8438 2.3444C19.5916 2.08765 19.2455 1.95971 18.8052 1.95971H18.2826V4.97292Z"
        fill="#072259"
      />
      <path
        fill-rule="evenodd"
        clip-rule="evenodd"
        d="M22.082 3.43351C22.082 2.67799 22.3364 2.04801 22.8445 1.54163C23.3529 1.03593 24.0037 0.782745 24.7978 0.782745C25.5917 0.782745 26.2426 1.03593 26.7512 1.54163C27.2593 2.04801 27.5133 2.67799 27.5133 3.43351C27.5133 4.2076 27.2593 4.85405 26.7512 5.37236C26.2425 5.89038 25.5917 6.14896 24.7978 6.14896C24.0037 6.14896 23.3528 5.89038 22.8445 5.37236C22.3364 4.85405 22.082 4.2076 22.082 3.43351ZM23.3962 3.43351C23.3962 3.87904 23.528 4.2489 23.7919 4.54454C24.0556 4.83942 24.3914 4.98738 24.7979 4.98738C25.2044 4.98738 25.5394 4.83942 25.8034 4.54454C26.0671 4.2489 26.1992 3.87904 26.1992 3.43351C26.1992 3.00752 26.0671 2.65277 25.8034 2.36945C25.5395 2.08622 25.2044 1.945 24.7979 1.945C24.3914 1.945 24.0557 2.08622 23.7919 2.36945C23.528 2.65267 23.3962 3.00752 23.3962 3.43351Z"
        fill="#072259"
      />
      <path
        fill-rule="evenodd"
        clip-rule="evenodd"
        d="M28.1133 6.06191L28.5415 0.870331H29.9214L30.6764 3.06285L30.9377 3.92003H30.9525C31.0493 3.57144 31.1363 3.28552 31.2141 3.06285L31.9689 0.870331H33.3488L33.7699 6.06191H32.4996L32.3395 3.72383C32.3296 3.60754 32.3251 3.47719 32.3251 3.33173C32.3251 3.18627 32.3271 3.07036 32.332 2.98285L32.3394 2.8526H32.325C32.2086 3.21553 32.1117 3.50578 32.0345 3.72374L31.49 5.22688H30.4008L29.8561 3.72374L29.5655 2.8526H29.5508C29.5701 3.17202 29.5701 3.46237 29.5508 3.72374L29.3914 6.06182H28.1133V6.06191Z"
        fill="#072259"
      />
      <path
        fill-rule="evenodd"
        clip-rule="evenodd"
        d="M17.9922 38.3096C18.3931 37.9931 18.781 37.6645 19.1446 37.3351C19.4878 37.0242 19.83 36.6895 20.1578 36.3445C22.3697 34.0165 23.9092 31.3001 24.9213 28.3796C26.0901 25.0073 26.566 21.3263 26.566 17.6262V15.4207H18.2051V11.3761H30.6106V17.6262C30.6106 25.4923 28.6149 33.3078 23.0854 39.128C22.6616 39.574 22.161 40.0547 21.6104 40.5391L21.0854 40.2323L20.4236 39.8468C19.5584 39.3656 18.7489 38.8527 17.9922 38.3097V38.3096ZM18.3359 42.995C18.472 42.9105 18.608 42.8234 18.744 42.7344C18.5985 42.811 18.4537 42.8838 18.3099 42.9529L18.3359 42.995Z"
        fill="#FF00A6"
      />
      <path
        fill-rule="evenodd"
        clip-rule="evenodd"
        d="M17.9922 38.3095C18.393 37.9931 18.781 37.6645 19.1446 37.3351C19.4878 37.0241 19.83 36.6895 20.1579 36.3445C22.3697 34.0165 23.9091 31.3001 24.9212 28.3796C26.0901 25.0074 26.5659 21.3263 26.5659 17.6262V15.4207H30.6106V17.6262C30.6106 25.4924 28.615 33.3078 23.0853 39.128C22.6616 39.574 22.161 40.0547 21.6103 40.539L21.0853 40.2324L20.4236 39.8468C19.5584 39.3656 18.7489 38.8527 17.9922 38.3096V38.3095Z"
        fill="url(#paint0_linear_1658_45408)"
      />
      <path
        fill-rule="evenodd"
        clip-rule="evenodd"
        d="M11.8047 11.3759V39.2371H15.8696V11.3759H11.8047Z"
        fill="url(#paint1_linear_1658_45408)"
      />
      <path
        fill-rule="evenodd"
        clip-rule="evenodd"
        d="M20.6765 30.5006V31.5894H18.5605V32.0007H21.0332V30.5006H20.6765ZM20.687 28.2805V29.4144H19.9426V28.3472H19.611V29.4144H18.9068V28.2805H18.5605V29.8238H21.0332V28.2805H20.687ZM21.0332 27.277L20.3487 27.0574V26.1899L21.0332 25.9704V25.5357L18.5605 26.3871V26.8453L21.0332 27.6967V27.2769V27.277ZM18.9879 26.6136L20.0334 26.282V26.9653L18.9879 26.6321V26.6136ZM19.2673 23.0689C19.1598 23.0825 19.0603 23.1128 18.968 23.161C18.8766 23.2098 18.7961 23.2742 18.7281 23.3545C18.6602 23.4343 18.6069 23.5295 18.5686 23.6395C18.531 23.7496 18.5117 23.8721 18.5117 24.0075C18.5117 24.222 18.5574 24.4062 18.6496 24.5596C18.7411 24.7129 18.8703 24.8304 19.0379 24.912C19.2049 24.9938 19.4015 25.0346 19.6279 25.0346H19.9536C20.125 25.0346 20.2808 25.0122 20.4199 24.9683C20.5595 24.9245 20.6783 24.859 20.7766 24.7719C20.8756 24.6846 20.951 24.5771 21.0035 24.4484C21.0561 24.3199 21.0821 24.1714 21.0821 24.0039C21.0821 23.8469 21.0598 23.7096 21.016 23.5915C20.972 23.4741 20.9109 23.3751 20.8323 23.2954C20.7537 23.2157 20.6623 23.1556 20.5578 23.1155C20.4534 23.0746 20.3414 23.0549 20.2214 23.0549H19.7199V24.0182H20.0438V23.4493H20.2398C20.3326 23.4493 20.416 23.4704 20.4897 23.5112C20.5633 23.5519 20.6219 23.6132 20.6653 23.6948C20.7092 23.7764 20.7307 23.8791 20.7307 24.0022C20.7307 24.1374 20.6986 24.2508 20.6355 24.3429C20.5719 24.4343 20.4821 24.5037 20.3653 24.55C20.2491 24.5964 20.1112 24.6198 19.9517 24.6198H19.6289C19.3878 24.6198 19.1998 24.5666 19.065 24.4603C18.9303 24.354 18.8628 24.2056 18.8628 24.0145C18.8628 23.9422 18.8727 23.876 18.8918 23.8167C18.911 23.7567 18.9389 23.7035 18.9741 23.6578C19.0099 23.612 19.0527 23.5737 19.1021 23.5428C19.1515 23.5119 19.2066 23.4896 19.2671 23.4748V23.0692L19.2673 23.0689ZM20.7272 21.3043C20.7272 21.4738 20.6765 21.6091 20.575 21.7111C20.4736 21.8132 20.332 21.8639 20.1509 21.8639H18.5605V22.2758H20.18C20.3599 22.2758 20.5182 22.2356 20.6536 22.1552C20.7895 22.0748 20.8948 21.9616 20.9695 21.8163C21.0448 21.671 21.0821 21.5004 21.0821 21.3043C21.0821 21.1079 21.0449 20.9365 20.9695 20.7918C20.8948 20.6472 20.7895 20.5346 20.6536 20.4543C20.5182 20.3739 20.3599 20.3337 20.18 20.3337H18.5605V20.7449H20.1509C20.3321 20.7449 20.4737 20.7957 20.575 20.897C20.6765 20.9984 20.7272 21.1344 20.7272 21.3044V21.3043ZM20.687 17.9117V19.0457H19.9426V17.9785H19.611V19.0457H18.9068V17.9117H18.5605V19.455H21.0332V17.9117H20.687Z"
        fill="#E5097F"
      />
      <path
        d="M15.1592 15.4206H8.91337H7.20489V17.6261L7.19699 17.634C7.17582 22.7166 7.95386 27.3139 9.83957 31.2276C11.6892 35.0662 14.6356 38.2845 18.9841 40.7022L19.6458 41.0877C19.9104 41.2428 20.2069 41.4166 20.4135 41.5345C19.2652 42.4336 18.0054 43.2699 16.8199 43.8325C14.8137 42.9701 12.6454 41.3488 11.0968 39.8657C10.1401 38.9252 9.28064 37.9279 8.51212 36.8768C4.52987 31.367 3.16016 24.396 3.16016 17.626V11.3758H8.91337H15.1592H15.8705V15.4205H15.1592V15.4206Z"
        fill="#00E5ED"
      />
      <path
        d="M44.5977 25.9607C44.5977 22.9319 45.6204 20.3898 47.6658 18.3346C49.7113 16.2794 52.2976 15.2516 55.4247 15.2516C58.5716 15.2516 61.1627 16.2743 63.1983 18.3198C65.2339 20.3652 66.2518 22.9122 66.2518 25.9607C66.2518 28.3994 65.4847 30.6121 63.9507 32.5985L66.3108 34.7226L64.1277 37.1417L61.8266 34.8406C59.9975 36.2173 57.8636 36.9057 55.4248 36.9057C52.2977 36.9057 49.7114 35.8535 47.6659 33.7491C45.6205 31.6446 44.5978 29.0484 44.5978 25.9607H44.5977ZM48.5214 25.9607C48.5214 28.0848 49.1803 29.8597 50.498 31.2857C51.8157 32.7116 53.4579 33.4246 55.4247 33.4246C56.8407 33.4246 58.0603 33.0509 59.0829 32.3036L56.7524 30.1205L58.906 27.7309L61.1775 30.0025C61.9446 28.8028 62.3281 27.4555 62.3281 25.9608C62.3281 23.8957 61.6692 22.1748 60.3515 20.798C59.0337 19.4214 57.3915 18.733 55.4247 18.733C53.4579 18.733 51.8157 19.4214 50.498 20.798C49.1803 22.1748 48.5214 23.8957 48.5214 25.9608V25.9607ZM68.2578 30.3563V29.1468H72.0341V30.1204C72.0341 31.0644 72.2602 31.8511 72.7126 32.4804C73.1649 33.1098 73.8533 33.4245 74.7777 33.4245C75.5841 33.4245 76.2428 33.1688 76.7543 32.6575C77.2657 32.146 77.5214 31.3594 77.5214 30.2973V18.8802H72.0932V15.6057H81.2975V30.3563C81.2975 32.5001 80.6535 34.1276 79.3652 35.2388C78.077 36.35 76.5479 36.9056 74.7778 36.9056C72.988 36.9056 71.454 36.345 70.1755 35.224C68.8971 34.1029 68.2579 32.4803 68.2579 30.3563L68.2578 30.3563Z"
        fill="#072259"
      />
      <path
        d="M93.5703 36.5518V15.6059H97.3759V33.2772H106.433V36.5518H93.5703Z"
        fill="#072259"
      />
      <path
        d="M109.383 36.5518V15.6059H121.921V18.8804H113.189V24.3677H120.239V27.6423H113.189V33.2772H122.393V36.5518H109.383Z"
        fill="#072259"
      />
      <path
        d="M124.219 36.5518L131.565 15.6059H135.577L142.923 36.5518H139.029L137.229 31.1826H129.883L128.113 36.5518H124.219H124.219ZM130.827 28.0849H136.285L134.426 22.4796L133.6 19.2344H133.541C133.227 20.6112 132.951 21.6928 132.715 22.4796L130.827 28.0849Z"
        fill="#072259"
      />
      <path
        d="M143.461 26.0492C143.461 23.0007 144.489 20.439 146.544 18.3641C148.599 16.2892 151.171 15.2516 154.258 15.2516C157.405 15.2516 160.001 16.1367 162.047 17.9068L160.159 20.7389C159.51 20.1489 158.664 19.6671 157.622 19.2934C156.579 18.9198 155.566 18.7329 154.583 18.7329C152.321 18.7329 150.556 19.4213 149.287 20.7979C148.019 22.1747 147.385 23.8857 147.385 25.9312C147.385 28.1536 148.053 29.9582 149.391 31.3447C150.728 32.7312 152.4 33.4246 154.406 33.4246C156.392 33.4246 158.143 32.6968 159.657 31.2415V28.7929H156.442V25.5183H163.079V36.5518H159.834V35.5488L159.864 34.6637H159.805C159.116 35.3325 158.226 35.8732 157.135 36.2863C156.043 36.6993 154.907 36.9059 153.728 36.9059C150.876 36.9059 148.452 35.8979 146.455 33.882C144.459 31.866 143.461 29.2551 143.461 26.0494V26.0492Z"
        fill="#072259"
      />
      <path
        d="M166.754 29.0289V15.6057H170.56V28.9994C170.56 30.3958 170.978 31.4825 171.813 32.2594C172.649 33.0363 173.775 33.4247 175.191 33.4247C176.607 33.4247 177.733 33.0363 178.569 32.2594C179.405 31.4825 179.823 30.3959 179.823 28.9994V15.6057H183.629V29.0289C183.629 31.3693 182.857 33.2672 181.313 34.7227C179.769 36.1781 177.738 36.9058 175.221 36.9058C172.684 36.9058 170.638 36.1781 169.085 34.7227C167.531 33.2673 166.754 31.3694 166.754 29.0289H166.754Z"
        fill="#072259"
      />
      <path
        d="M186.988 36.5518V15.6059H199.526V18.8804H190.794V24.3677H197.845V27.6423H190.794V33.2772H199.998V36.5518H186.988Z"
        fill="#072259"
      />
      <defs>
        <linearGradient
          id="paint0_linear_1658_45408"
          x1="24.3014"
          y1="15.4206"
          x2="24.3014"
          y2="40.5389"
          gradientUnits="userSpaceOnUse"
        >
          <stop stop-color="#4F0059" />
          <stop offset="0.25098" stop-color="#A1007D" />
          <stop offset="0.701961" stop-color="#F400A1" />
          <stop offset="1" stop-color="#FF00A6" />
        </linearGradient>
        <linearGradient
          id="paint1_linear_1658_45408"
          x1="13.8372"
          y1="39.2371"
          x2="13.8372"
          y2="11.3759"
          gradientUnits="userSpaceOnUse"
        >
          <stop stop-color="#054B77" />
          <stop offset="0.321569" stop-color="#0398B2" />
          <stop offset="0.768627" stop-color="#00E5ED" />
          <stop offset="1" stop-color="#00E5ED" />
        </linearGradient>
      </defs>
    </svg>
